# AST/ASF file generated using VICON BodyLanguage
# -----------------------------------------------
:version 1.10
:name VICON
:units
  mass 1.0
  length 0.45
  angle deg
:documentation
   .ast/.asf automatically generated from VICON data using
   VICON BodyBuilder and BodyLanguage model FoxedUp or BRILLIANT.MOD
:root
   order TX TY TZ RX RY RZ
   axis XYZ
   position 0 0 0  
   orientation 0 0 0 
:bonedata
  begin
     id 1 
     name lhipjoint
     direction 0.603808 -0.713975 0.35448 
     length 2.2025 
     axis 0 0 0  XYZ
  end
  begin
     id 2 
     name lfemur
     direction 0.34202 -0.939693 0  
     length 6.55877  
     axis 0 0 20  XYZ
    dof rx ry rz
    limits (-160.0 20.0)
           (-70.0 70.0)
           (-60.0 70.0)
  end
  begin
     id 3 
     name ltibia
     direction 0.34202 -0.939693 0   
     length 6.80302   
     axis 0 0 20   XYZ
    dof rx
    limits (-10.0 170.0)
  end
  begin
     id 4 
     name lfoot
     direction 0.091848 -0.25235 0.963267   
     length 2.03446   
     axis -90 7.62852e-016 20   XYZ
    dof rx rz
    limits (-45.0 90.0)
           (-70.0 20.0)
  end
  begin
     id 5 
     name ltoes
     direction 1.53608e-011 -4.21925e-011 1   
     length 1.02033   
     axis -90 7.62852e-016 20   XYZ
    dof rx
    limits (-90.0 20.0)
  end
  begin
     id 6 
     name rhipjoint
     direction -0.587285 -0.724947 0.359928   
     length 2.16916  
     axis 0 0 0  XYZ 
  end
  begin
     id 7 
     name rfemur
     direction -0.34202 -0.939693 0   
     length 6.43173   
     axis 0 0 -20   XYZ
    dof rx ry rz
    limits (-160.0 20.0)
           (-70.0 70.0)
           (-70.0 60.0)
  end
  begin
     id 8 
     name rtibia
     direction -0.34202 -0.939693 0   
     length 6.70662   
     axis 0 0 -20   XYZ
    dof rx
    limits (-10.0 170.0)
 end
 begin
     id 9 
     name rfoot
     direction -0.11854 -0.325686 0.938018   
     length 2.0773  
     axis -90 -7.62852e-016 -20   XYZ
    dof rx rz
    limits (-45.0 90.0)
           (-20.0 70.0)
  end
  begin
     id 10 
     name rtoes
     direction -1.53547e-011 -4.21838e-011 1   
     length 1.03267   
     axis -90 -7.62852e-016 -20   XYZ
    dof rx
    limits (-90.0 20.0)
  end
  begin
     id 11 
     name lowerback
     direction -0.0286554 0.999539 0.0100613   
     length 2.08751   
     axis 0 0 0   XYZ
    dof rx ry rz
    limits (-20.0 45.0)
           (-30.0 30.0)
           (-30.0 30.0)
  end
  begin
     id 12 
     name upperback
     direction 0.0227093 0.999705 -0.00860929   
     length 2.08517   
     axis 0 0 0   XYZ
    dof rx ry rz
    limits (-20.0 45.0)
           (-30.0 30.0)
           (-30.0 30.0)
  end
  begin
     id 13 
     name thorax
     direction 0.0351627 0.999285 -0.013892   
     length 2.08412   
     axis 0 0 0   XYZ
    dof rx ry rz
    limits (-20.0 45.0)
           (-30.0 30.0)
           (-30.0 30.0)
  end
  begin
     id 14 
     name lowerneck
     direction -0.0696283 0.997344 0.0213922   
     length 1.44164   
     axis 0 0 0   XYZ
    dof rx ry rz
    limits (-20.0 45.0)
           (-30.0 30.0)
           (-30.0 30.0)
  end
  begin
     id 15 
     name upperneck
     direction 0.0531 0.990412 -0.127531   
     length 1.45022   
     axis 0 0 0   XYZ
    dof rx ry rz
    limits (-20.0 45.0)
           (-30.0 30.0)
           (-30.0 30.0)
  end
  begin
     id 16
     name head
     direction 0.0188154 0.998548 -0.0504727  
     length 1.45845  
     axis 0 0 0   XYZ
    dof rx ry rz
    limits (-20.0 45.0)
           (-30.0 30.0)
           (-30.0 30.0)
  end
  begin
     id 17 
     name lclavicle
     direction 0.961559 0.260051 0.088188  
     length 2.86057  
     axis 0 0 0   XYZ
    dof ry rz
    limits (-20.0 10.0)
           (0.0 20.0)
  end
  begin
     id 18 
     name lhumerus
     direction 1 -4.48959e-011 2.88185e-027   
     length 4.36901   
     axis 180 -30 -90   XYZ
    dof rx ry rz
    limits (-60.0 90.0)
           (-90.0 90.0)
           (-90.0 90.0)
  end
  begin
     id 19
     name lradius
     direction 1 -4.48965e-011 -3.92618e-028   
     length 3.21737   
     axis 180 -30 -90   XYZ
    dof rx
    limits (-10.0 170.0)
  end
  begin
     id 20
     name lwrist
     direction 1 -4.49037e-011 2.57246e-027   
     length 1.60869   
     axis -1.61769e-015 90 90   XYZ
    dof ry
    limits (-180.0 0.0)
 end
  begin
     id 21 
     name lhand
     direction 1 -4.48807e-011 5.12958e-027   
     length 0.564313   
     axis -3.27988e-015 90 90   XYZ
    dof rx rz
    limits (-90.0 90.0)
           (-45.0 45.0)
  end
  begin
     id 22 
     name lfingers
     direction 1 -4.48879e-011 1.02687e-026   
     length 0.454963   
     axis -6.5598e-015 90 90   XYZ
    dof rx
    limits (0.0 90.0)
  end
  begin
     id 23
     name lthumb
     direction 0.707107 -6.3475e-011 0.707107   
     length 0.653239   
     axis -90 45 2.19363e-014   XYZ
    dof rx rz
    limits (-45.0 45.0)
           (-45.0 45.0)
  end
  begin
     id 24 
     name rclavicle
     direction -0.954677 0.253915 0.155304   
     length 3.11497  
     axis 0 0 0   XYZ 
    dof ry rz
    limits (-10.0 20.0)
           (-20.0 0.0)
  end
  begin
     id 25 
     name rhumerus
     direction -1 -4.48958e-011 -8.20169e-028  
     length 4.34118   
     axis 180 30 90   XYZ
    dof rx ry rz
    limits (-90.0 60.0)
           (-90.0 90.0)
           (-90.0 90.0)
  end
  begin
     id 26 
     name rradius
     direction -1 -4.48978e-011 1.5676e-027   
     length 3.09531   
     axis 180 30 90   XYZ
    dof rx
    limits (-10.0 170.0)
  end
  begin
     id 27 
     name rwrist
     direction -1 -4.49001e-011 2.57123e-027   
     length 1.54765   
     axis -1.61769e-015 -90 -90   XYZ
    dof ry
    limits (-180.0 0.0)
  end
  begin
     id 28
     name rhand
     direction -1 -4.48847e-011 5.13225e-027   
     length 0.597446   
     axis -3.27988e-015 -90 -90   XYZ
    dof rx rz
    limits (-90.0 90.0)
           (-45.0 45.0)
  end
  begin
     id 29
     name rfingers
     direction -1 -4.49094e-011 1.02974e-026   
     length 0.481677   
     axis -6.5598e-015 -90 -90   XYZ
    dof rx
    limits (0.0 90.0)
  end
  begin
     id 30
     name rthumb
     direction -0.707107 -6.34859e-011 0.707107   
     length 0.691594   
     axis -90 -45 -2.19363e-014   XYZ
    dof rx rz
    limits (-45.0 45.0)
           (-45.0 45.0)
  end
:hierarchy
  begin
    root lhipjoint rhipjoint lowerback
    lhipjoint lfemur
    lfemur ltibia
    ltibia lfoot
    lfoot ltoes
    rhipjoint rfemur
    rfemur rtibia
    rtibia rfoot
    rfoot rtoes
    lowerback upperback
    upperback thorax
    thorax lowerneck lclavicle rclavicle
    lowerneck upperneck
    upperneck head
    lclavicle lhumerus
    lhumerus lradius
    lradius lwrist
    lwrist lhand lthumb
    lhand lfingers
    rclavicle rhumerus
    rhumerus rradius
    rradius rwrist
    rwrist rhand rthumb
    rhand rfingers
  end

#!OML:ASF G:\acrobat\cartwheel_test 2\Patient 1\Session 1\acrobat.ASF
:FULLY-SPECIFIED
:DEGREES
17
root 7.61117 14.6076 -0.767982 -9.80397 0.0471117 1.58094
lowerback -0.491663 -0.326267 -3.32128
upperback 0.269961 -0.417421 1.21396
thorax 0.585599 -0.224213 3.10556
lowerneck -9.52172 -5.5376 -6.66455
upperneck 16.8895 -7.23187 3.98089
head 7.12732 -3.57422 1.71654
rclavicle 4.42296e-015 -1.07344e-014
rhumerus 43.9528 1.12358 -67.2873
rradius 19.8794
rwrist 29.4218
rhand -19.883 37.4066
rfingers 7.12502
rthumb 6.45272 7.52492
lclavicle 4.42296e-015 -1.07344e-014
lhumerus 42.0379 -20.423 44.548
lradius 28.8045
lwrist 16.7557
lhand -14.2133 41.2612
lfingers 7.12502
lthumb 11.9234 70.9016
rfemur -11.3007 -5.37608 12.1141
rtibia 52.6997
rfoot -29.434 -16.8824
rtoes -12.9853
lfemur -14.3559 5.2532 -10.2216
ltibia 53.9656
lfoot -23.2976 11.7856
ltoes -15.3861
18
root 7.60644 14.604 -0.761886 -9.8228 0.048408 1.57412
lowerback -0.454849 -0.344881 -3.33198
upperback 0.243934 -0.443582 1.21716
thorax 0.540405 -0.236091 3.11492
lowerneck -9.54095 -5.52311 -6.67838
upperneck 16.9029 -7.21023 3.98774
head 7.13459 -3.56389 1.72254
rclavicle 0 -2.06736e-014
rhumerus 44.0603 0.656015 -67.9279
rradius 19.699
rwrist 30.1363
rhand -19.2713 37.8225
rfingers 7.12502
rthumb 7.04325 7.95964
lclavicle 0 -2.06736e-014
lhumerus 41.9704 -20.395 44.4937
lradius 28.8342
lwrist 16.8302
lhand -14.3571 41.2945
lfingers 7.12502
lthumb 11.7847 70.9429
rfemur -11.281 -5.38302 12.1398
rtibia 52.7578
rfoot -29.6836 -16.8978
rtoes -12.7132
lfemur -14.3341 5.22842 -10.1965
ltibia 54.0056
lfoot -23.3639 11.7819
ltoes -15.3377
19
root 7.60324 14.5993 -0.753141 -9.86696 0.0500791 1.65529
lowerback -0.479576 -0.34525 -3.43421
upperback 0.272182 -0.442232 1.2004
thorax 0.583858 -0.237043 3.15502
lowerneck -9.55939 -5.51716 -6.66245
upperneck 16.8444 -7.20288 3.9968
head 7.11814 -3.55826 1.72357
rclavicle 1.09332e-015 -4.37326e-015
rhumerus 44.2096 0.189888 -68.5043
rradius 19.5832
rwrist 31.1362
rhand -18.9168 37.8296
rfingers 7.12502
rthumb 7.38545 7.97852
lclavicle 1.09332e-015 -4.37326e-015
lhumerus 41.9581 -20.2704 44.5589
lradius 28.804
lwrist 16.7739
lhand -14.4646 41.2117
lfingers 7.12502
lthumb 11.6811 70.8661
rfemur -11.2078 -5.42971 12.0216
rtibia 52.7972
rfoot -29.804 -16.7983
rtoes -12.5504
lfemur -14.2477 5.22853 -10.2896
ltibia 54.0092
lfoot -23.4354 11.8299
ltoes -15.3115
20
root 7.6001 14.5964 -0.746162 -9.88926 0.0565783 1.74513
lowerback -0.531796 -0.339643 -3.54557
upperback 0.30088 -0.431746 1.17809
thorax 0.642488 -0.233818 3.19451
lowerneck -9.64517 -5.52972 -6.61518
upperneck 16.8888 -7.21862 3.96681
head 7.14558 -3.56407 1.70209
rclavicle -9.54166e-015 1.66979e-014
rhumerus 44.259 0.211352 -68.4175
rradius 19.6284
rwrist 31.1737
rhand -18.9236 37.909
rfingers 7.12502
rthumb 7.37888 8.05764
lclavicle -9.54166e-015 1.66979e-014
lhumerus 41.9664 -20.1662 44.5856
lradius 28.8047
lwrist 16.7107
lhand -14.4317 40.9619
lfingers 7.12502
lthumb 11.7129 70.6145
rfemur -11.2121 -5.53075 11.8909
rtibia 52.9182
rfoot -29.8809 -16.7303
rtoes -12.6655
lfemur -14.2002 5.21349 -10.3894
ltibia 54.0435
lfoot -23.5297 11.7983
ltoes -15.0436
21
root 7.59552 14.596 -0.74202 -9.88443 0.0594416 1.76558
lowerback -0.574866 -0.333779 -3.58544
upperback 0.302236 -0.421952 1.15681
thorax 0.667388 -0.229558 3.1949
lowerneck -9.63973 -5.53611 -6.54495
upperneck 16.8815 -7.2376 3.95665
head 7.14009 -3.56974 1.68582
rclavicle 3.18055e-015 0
rhumerus 44.1146 0.956107 -67.4615
rradius 19.8388
rwrist 29.9323
rhand -19.5287 37.8921
rfingers 7.12502
rthumb 6.79479 8.02113
lclavicle 3.18055e-015 0
lhumerus 41.9773 -20.1304 44.5219
lradius 28.855
lwrist 16.6905
lhand -14.391 40.797
lfingers 7.12502
lthumb 11.7521 70.4473
rfemur -11.2609 -5.56818 11.8801
rtibia 53.0436
rfoot -29.9183 -16.7234
rtoes -12.8706
lfemur -14.2016 5.21693 -10.3838
ltibia 54.0777
lfoot -23.4873 11.8075
ltoes -15.389
22
root 7.59075 14.5973 -0.7377 -9.84764 0.0516416 1.7766
lowerback -0.660816 -0.345915 -3.64409
upperback 0.304013 -0.434645 1.17071
thorax 0.719067 -0.237291 3.24165
lowerneck -9.57051 -5.51236 -6.5094
upperneck 16.7607 -7.20288 3.91463
head 7.08389 -3.55543 1.67279
rclavicle -4.42296e-015 1.70955e-014
rhumerus 44.0479 1.6423 -66.6791
rradius 20.0145
rwrist 29.0269
rhand -20.045 37.5393
rfingers 7.12502
rthumb 6.29633 7.65289
lclavicle -4.42296e-015 1.70955e-014
lhumerus 41.9541 -20 44.5583
lradius 28.8615
lwrist 16.6196
lhand -14.3389 40.8017
lfingers 7.12502
lthumb 11.8023 70.4491
rfemur -11.3077 -5.56263 11.8969
rtibia 53.1045
rfoot -29.93 -16.7331
rtoes -13.0221
lfemur -14.224 5.24748 -10.3714
ltibia 54.1089
lfoot -23.4625 11.8337
ltoes -15.6475
23
root 7.58639 14.5975 -0.731572 -9.84189 0.0675196 1.753
lowerback -0.734689 -0.368313 -3.67501
upperback 0.322077 -0.461651 1.20749
thorax 0.78191 -0.252652 3.29616
lowerneck -9.54028 -5.49781 -6.54361
upperneck 16.699 -7.17357 3.89786
head 7.05777 -3.5453 1.67707
rclavicle -9.74045e-015 1.43125e-014
rhumerus 44.0802 1.78518 -66.5219
rradius 20.071
rwrist 28.9093
rhand -19.9443 37.24
rfingers 7.12502
rthumb 6.39357 7.35655
lclavicle -9.74045e-015 1.43125e-014
lhumerus 41.9281 -19.8871 44.558
lradius 28.8952
lwrist 16.5758
lhand -14.2779 40.8761
lfingers 7.12502
lthumb 11.8612 70.5202
rfemur -11.2624 -5.59626 11.9325
rtibia 53.0909
rfoot -29.9304 -16.7376
rtoes -13.1529
lfemur -14.1976 5.22433 -10.3272
ltibia 54.2027
lfoot -23.5595 11.7656
ltoes -15.5438
